<svg width="120" height="180" viewBox="0 0 120 180" fill="none" xmlns="http://www.w3.org/2000/svg">
<g clip-path="url(#clip0_18_575)">
<path d="M118.849 128.696L62.9661 168.383C62.1066 168.915 61.1567 169.193 60.1932 169.193C59.2298 169.193 58.2799 168.915 57.4204 168.383L1.17312 128.696C0.406081 128.157 0.0225601 127.445 0.0225601 126.732V137.535C0.0225601 138.248 0.406081 138.941 1.17312 139.504L57.4204 179.186C58.2791 179.721 59.2293 180 60.1932 180C61.1571 180 62.1073 179.721 62.9661 179.186L118.849 139.499C119.616 138.96 120 138.248 120 137.54V126.732C119.992 127.445 119.612 128.152 118.849 128.696Z" fill="#F5F5F5"/>
<path d="M1.17357 128.696L57.4208 168.383C58.2803 168.915 59.2302 169.192 60.1937 169.192C61.1571 169.192 62.1071 168.915 62.9665 168.383L118.849 128.696C119.616 128.152 120 127.444 120 126.732C120 126.02 119.616 125.326 118.849 124.768L62.5868 85.0858C61.7274 84.5508 60.7766 84.2719 59.8121 84.2719C58.8476 84.2719 57.8967 84.5508 57.0373 85.0858L1.15056 124.764C0.383521 125.307 0 126.02 0 126.727C0 127.435 0.402696 128.157 1.17357 128.696Z" fill="#F5F5F5"/>
<path d="M102.622 130.369L59.8445 100.186L17.3772 130.345L60.1552 160.528L102.622 130.369Z" fill="#F5F5F5"/>
<path opacity="0.4" d="M102.622 130.369L59.8445 100.186L17.3772 130.345L60.1552 160.528L102.622 130.369Z" fill="url(#paint0_linear_18_575)"/>
<path d="M12.2571 126.732L17.3771 130.345L59.8444 100.186V92.936L12.2571 126.732Z" fill="#F5F5F5"/>
<path d="M59.8448 92.936V100.186L102.623 130.369L107.743 126.732L59.8448 92.936Z" fill="#F5F5F5"/>
<path opacity="0.2" d="M12.2571 126.732L17.3771 130.345L59.8444 100.186V92.936L12.2571 126.732Z" fill="url(#paint1_linear_18_575)"/>
<path opacity="0.1" d="M59.8448 92.936V100.186L102.623 130.369L107.743 126.732L59.8448 92.936Z" fill="url(#paint2_linear_18_575)"/>
<path opacity="0.1" d="M57.4204 168.383L1.17312 128.696C0.406081 128.157 0.0225601 127.445 0.0225601 126.732V137.535C0.0225601 138.248 0.406081 138.941 1.17312 139.504L57.4204 179.186C58.2609 179.735 59.2019 180.014 60.1549 179.997V169.194C59.2021 169.209 58.2616 168.93 57.4204 168.383V168.383Z" fill="url(#paint3_linear_18_575)"/>
<path opacity="0.2" d="M118.849 128.696L62.9664 168.383C62.1023 168.945 61.1338 169.225 60.1552 169.194V179.997C61.134 180.03 62.1029 179.75 62.9664 179.186L118.849 139.499C119.616 138.96 120 138.248 120 137.54V126.732C119.992 127.445 119.612 128.152 118.849 128.696Z" fill="url(#paint4_linear_18_575)"/>
<path style="mix-blend-mode:multiply" opacity="0.4" d="M103.333 -6.82909C103.304 -7.11637 103.191 -7.39098 103.007 -7.62397C102.822 -7.85696 102.573 -8.03969 102.286 -8.15292L62.661 -29.4359C61.8805 -29.8066 61.0156 -30 60.1379 -30C59.2603 -30 58.3953 -29.8066 57.6149 -29.4359L17.7145 -8.17837C17.4283 -8.05651 17.1812 -7.86809 16.9975 -7.63157C16.8138 -7.39504 16.6998 -7.11852 16.6667 -6.82909V129.652C16.6908 129.937 16.7984 130.211 16.9781 130.444C17.1578 130.677 17.4029 130.861 17.6869 130.976L55 157.608C55.7804 157.978 59.1224 161.456 60 161.456C60.8777 161.456 65.0529 157.978 65.8334 157.608L102.286 130.976C102.572 130.854 102.819 130.665 103.003 130.429C103.186 130.192 103.3 129.916 103.333 129.626V-6.82909Z" fill="url(#paint5_linear_18_575)"/>
<g opacity="0.25">
<path d="M60.6321 64.7758C77.7493 64.7758 91.6255 50.2752 91.6255 32.3879C91.6255 14.5006 77.7493 0 60.6321 0C43.515 0 29.6388 14.5006 29.6388 32.3879C29.6388 50.2752 43.515 64.7758 60.6321 64.7758Z" fill="url(#paint6_linear_18_575)"/>
<path d="M33.8263 66.1817C45.8806 66.1817 55.6526 55.97 55.6526 43.3733C55.6526 30.7766 45.8806 20.5649 33.8263 20.5649C21.772 20.5649 12 30.7766 12 43.3733C12 55.97 21.772 66.1817 33.8263 66.1817Z" fill="url(#paint7_linear_18_575)"/>
<path d="M91.6303 64.7756C100.671 64.7756 108 57.1168 108 47.6693C108 38.2218 100.671 30.563 91.6303 30.563C82.5895 30.563 75.2606 38.2218 75.2606 47.6693C75.2606 57.1168 82.5895 64.7756 91.6303 64.7756Z" fill="url(#paint8_linear_18_575)"/>
<path opacity="0.75" d="M72.8959 74.6665C74.6896 74.6665 76.1437 73.147 76.1437 71.2725C76.1437 69.3981 74.6896 67.8786 72.8959 67.8786C71.1022 67.8786 69.6481 69.3981 69.6481 71.2725C69.6481 73.147 71.1022 74.6665 72.8959 74.6665Z" fill="url(#paint9_linear_18_575)"/>
<path d="M100.096 25.0302C102.787 25.0302 104.968 22.7509 104.968 19.9393C104.968 17.1276 102.787 14.8484 100.096 14.8484C97.4054 14.8484 95.2243 17.1276 95.2243 19.9393C95.2243 22.7509 97.4054 25.0302 100.096 25.0302Z" fill="url(#paint10_linear_18_575)"/>
<path d="M30.2689 8.48483C32.511 8.48483 34.3286 6.58544 34.3286 4.24242C34.3286 1.89939 32.511 0 30.2689 0C28.0267 0 26.2091 1.89939 26.2091 4.24242C26.2091 6.58544 28.0267 8.48483 30.2689 8.48483Z" fill="url(#paint11_linear_18_575)"/>
<path opacity="0.5" d="M83.045 6.36374C84.1661 6.36374 85.0749 5.41404 85.0749 4.24253C85.0749 3.07102 84.1661 2.12132 83.045 2.12132C81.924 2.12132 81.0152 3.07102 81.0152 4.24253C81.0152 5.41404 81.924 6.36374 83.045 6.36374Z" fill="url(#paint12_linear_18_575)"/>
</g>
<path d="M73.6329 22.4771L66.2509 18.1759C65.9045 17.9761 65.593 17.9615 65.3694 18.0989L64.4805 18.6194C64.7023 18.4929 65.0102 18.5131 65.3474 18.7074L72.7294 23.0086C73.0851 23.2396 73.3811 23.5514 73.5932 23.9187C73.8053 24.2859 73.9276 24.6982 73.9499 25.1217L73.8931 33.1634C73.8931 33.5299 73.7648 33.7993 73.5596 33.9331L74.4246 33.4255L74.4484 33.4108L74.4704 33.398C74.672 33.2642 74.7966 33.0003 74.7984 32.6319L74.8552 24.5884C74.8321 24.1651 74.7093 23.7532 74.4969 23.3863C74.2845 23.0195 73.9885 22.708 73.6329 22.4771V22.4771Z" fill="#2372D9"/>
<path opacity="0.4" d="M73.6329 22.4771L66.2509 18.1759C65.9045 17.9761 65.593 17.9615 65.3694 18.0989L64.4805 18.6194C64.7023 18.4929 65.0102 18.5131 65.3474 18.7074L72.7294 23.0086C73.0851 23.2396 73.3811 23.5514 73.5932 23.9187C73.8053 24.2859 73.9276 24.6982 73.9499 25.1217L73.8931 33.1634C73.8931 33.5299 73.7648 33.7993 73.5596 33.9331L74.4246 33.4255L74.4484 33.4108L74.4704 33.398C74.672 33.2642 74.7966 33.0003 74.7984 32.6319L74.8552 24.5884C74.8321 24.1651 74.7093 23.7532 74.4969 23.3863C74.2845 23.0195 73.9885 22.708 73.6329 22.4771V22.4771Z" fill="#595959"/>
<path d="M73.8937 33.1635L73.9505 25.1199C73.9281 24.6964 73.8059 24.2842 73.5937 23.9169C73.3816 23.5497 73.0856 23.2378 72.7299 23.0068L65.348 18.7056C65.0107 18.5113 64.7029 18.4912 64.4811 18.6176C64.263 18.7459 64.1274 19.0153 64.1256 19.4002L64.0688 27.4437C64.091 27.8673 64.2131 28.2795 64.4253 28.6468C64.6374 29.0141 64.9335 29.3259 65.2893 29.5568L72.6731 33.858C73.025 34.0633 73.3439 34.0725 73.5674 33.9277C73.791 33.7829 73.8918 33.53 73.8937 33.1635Z" fill="#2372D9"/>
<path opacity="0.2" d="M73.8937 33.1635L73.9505 25.1199C73.9281 24.6964 73.8059 24.2842 73.5937 23.9169C73.3816 23.5497 73.0856 23.2378 72.7299 23.0068L65.348 18.7056C65.0107 18.5113 64.7029 18.4912 64.4811 18.6176C64.263 18.7459 64.1274 19.0153 64.1256 19.4002L64.0688 27.4437C64.091 27.8673 64.2131 28.2795 64.4253 28.6468C64.6374 29.0141 64.9335 29.3259 65.2893 29.5568L72.6731 33.858C73.025 34.0633 73.3439 34.0725 73.5674 33.9277C73.791 33.7829 73.8918 33.53 73.8937 33.1635Z" fill="#595959"/>
<path opacity="0.2" d="M73.6329 22.4771L66.2509 18.1759C65.9045 17.9761 65.593 17.9615 65.3694 18.0989L64.4805 18.6194C64.7023 18.4929 65.0102 18.5131 65.3474 18.7074L72.7294 23.0086C73.0851 23.2396 73.3811 23.5514 73.5932 23.9187C73.8053 24.2859 73.9276 24.6982 73.9499 25.1217L73.8931 33.1634C73.8931 33.5299 73.7648 33.7993 73.5596 33.9331L74.4246 33.4255L74.4484 33.4108L74.4704 33.398C74.672 33.2642 74.7966 33.0003 74.7984 32.6319L74.8552 24.5884C74.8321 24.1651 74.7093 23.7532 74.4969 23.3863C74.2845 23.0195 73.9885 22.708 73.6329 22.4771V22.4771Z" fill="#E6F4FF"/>
<path opacity="0.3" d="M73.8937 33.1635L73.9505 25.1199C73.9281 24.6964 73.8059 24.2842 73.5937 23.9169C73.3816 23.5497 73.0856 23.2378 72.7299 23.0068L65.348 18.7056C65.0107 18.5113 64.7029 18.4912 64.4811 18.6176C64.263 18.7459 64.1274 19.0153 64.1256 19.4002L64.0688 27.4437C64.091 27.8673 64.2131 28.2795 64.4253 28.6468C64.6374 29.0141 64.9335 29.3259 65.2893 29.5568L72.6731 33.858C73.025 34.0633 73.3439 34.0725 73.5674 33.9277C73.791 33.7829 73.8918 33.53 73.8937 33.1635Z" fill="#E6F4FF"/>
<path opacity="0.7" d="M70.7963 26.5198L71.4341 26.8863L71.4212 31.3397L66.5775 28.5449L66.5903 24.0915L67.2263 24.458V23.4006C67.2263 22.268 68.0326 21.8098 69.0168 22.3798C70.0009 22.9497 70.8 24.3297 70.7963 25.4605V26.5198ZM70.1054 26.1203V25.0628C70.085 24.6845 69.9757 24.3164 69.7862 23.9884C69.5967 23.6604 69.3324 23.3818 69.0149 23.1752C68.412 22.827 67.9153 23.1074 67.9153 23.8001V24.8594L70.1017 26.1203H70.1054ZM69.3796 29.0763L69.233 27.5955C69.4053 27.5955 69.5263 27.4636 69.5263 27.229C69.517 27.0485 69.4651 26.8728 69.3746 26.7163C69.2841 26.5599 69.1577 26.4272 69.0058 26.3292C68.718 26.1624 68.4835 26.2944 68.4835 26.6261C68.496 26.8893 68.5997 27.1401 68.7767 27.3353L68.6246 28.6402L69.3796 29.0763" fill="#E6F4FF"/>
<path d="M55.287 56.5816L47.2377 61.2018C46.9928 61.3431 46.7906 61.548 46.6524 61.7947C46.5185 62.0291 46.4486 62.2947 46.4497 62.5647V68.4297C46.452 68.7051 46.528 68.9748 46.67 69.2108C46.8119 69.4467 47.0145 69.6403 47.2567 69.7714C47.4989 69.9024 47.7718 69.9662 48.047 69.9559C48.3222 69.9457 48.5896 69.8618 48.8213 69.7131L50.2202 68.9123L50.346 69.1176C50.3522 69.1243 50.3591 69.1303 50.3665 69.1356H50.3819C50.6129 69.2896 51.0185 69.5052 51.1083 69.554C51.1294 69.5614 51.1526 69.5601 51.1728 69.5505C51.193 69.5409 51.2086 69.5237 51.2161 69.5026L51.7295 68.0421L56.863 65.1058C57.1036 64.9687 57.3037 64.7704 57.443 64.531C57.5822 64.2917 57.6558 64.0198 57.6561 63.7428V57.8599C57.6612 56.7254 55.9928 56.1786 55.287 56.5816Z" fill="url(#paint13_linear_18_575)"/>
<path opacity="0.2" d="M50.3459 69.1023C50.3521 69.109 50.3589 69.115 50.3664 69.1202H50.3818C50.6128 69.2742 51.0184 69.4899 51.1082 69.5386C51.0879 69.5333 51.0705 69.5204 51.0594 69.5027L50.5461 68.6967L50.6462 68.6403L50.2073 68.8969L50.3459 69.1023Z" fill="white"/>
<path opacity="0.4" d="M48.2156 62.6801C48.3186 62.4815 48.4619 62.3066 48.6365 62.1667C48.6961 62.1179 48.7596 62.0741 48.8265 62.0358L56.8758 57.4157C56.9549 57.3662 57.0459 57.3391 57.1392 57.3375C57.2325 57.3359 57.3245 57.3597 57.4053 57.4064C57.486 57.4531 57.5525 57.521 57.5976 57.6027C57.6427 57.6843 57.6647 57.7768 57.6612 57.87C57.6612 56.7355 55.9928 56.1888 55.287 56.5866L47.2376 61.2068C46.9934 61.3467 46.7913 61.5497 46.6524 61.7946L48.2156 62.6801Z" fill="white"/>
<path opacity="0.2" d="M48.0385 69.2431V63.3858C48.0346 63.3234 48.0346 63.2608 48.0385 63.1984C48.0636 63.0192 48.1192 62.8456 48.2027 62.6851L46.6524 61.7944C46.5185 62.0289 46.4486 62.2944 46.4497 62.5644V68.4295C46.4519 68.7048 46.528 68.9745 46.67 69.2105C46.8119 69.4465 47.0145 69.6401 47.2567 69.7711C47.4989 69.9022 47.7718 69.9659 48.047 69.9556C48.3222 69.9454 48.5896 69.8615 48.8213 69.7128C48.7412 69.7626 48.6489 69.7892 48.5545 69.7899C48.4602 69.7906 48.3675 69.7653 48.2866 69.7168C48.2057 69.6683 48.1398 69.5984 48.096 69.5148C48.0522 69.4313 48.0323 69.3372 48.0385 69.2431Z" fill="white"/>
<path d="M55.3488 59.351C55.4114 59.3052 55.485 59.2768 55.5621 59.2687C55.6392 59.2606 55.717 59.2731 55.7878 59.3048C56.029 59.4434 56.0444 59.8952 55.7878 60.3135L52.4125 66.1606C52.3073 66.3491 52.1564 66.508 51.9736 66.6226C51.9108 66.668 51.8371 66.6959 51.76 66.7036C51.6829 66.7112 51.6052 66.6984 51.5347 66.6662L50.0819 65.8398C49.8406 65.7011 49.8252 65.2494 50.0819 64.831C50.186 64.6418 50.3372 64.4827 50.5208 64.369C50.5836 64.3236 50.6573 64.2957 50.7344 64.288C50.8115 64.2804 50.8892 64.2933 50.9597 64.3254L51.971 64.9003L54.9099 59.813C55.0133 59.6233 55.1646 59.4639 55.3488 59.351V59.351Z" fill="white"/>
<path d="M74.6676 57.0765C74.2429 57.0835 73.8235 56.9808 73.45 56.7784L57.1663 47.3558C56.8657 47.2063 56.5346 47.1285 56.1988 47.1285C55.8631 47.1285 55.5319 47.2063 55.2313 47.3558L39.9076 56.1974C39.879 56.2182 39.8463 56.2328 39.8118 56.2401C39.7772 56.2475 39.7415 56.2476 39.7069 56.2403C39.6723 56.233 39.6396 56.2185 39.611 56.1978C39.5823 56.1771 39.5584 56.1506 39.5406 56.1201C39.5228 56.0895 39.5117 56.0556 39.5078 56.0204C39.504 55.9853 39.5076 55.9497 39.5184 55.9161C39.5292 55.8824 39.5469 55.8514 39.5704 55.825C39.5939 55.7986 39.6227 55.7775 39.6549 55.7629L54.9635 46.9163C55.3409 46.7221 55.7592 46.6209 56.1837 46.6209C56.6081 46.6209 57.0264 46.7221 57.4038 46.9163L73.7026 56.3288C74.0032 56.4783 74.3344 56.5561 74.6702 56.5561C75.0059 56.5561 75.3371 56.4783 75.6377 56.3288L97.1151 43.9303C97.1437 43.9095 97.1764 43.895 97.2109 43.8876C97.2455 43.8802 97.2812 43.8802 97.3158 43.8875C97.3504 43.8947 97.3831 43.9092 97.4117 43.9299C97.4404 43.9506 97.4644 43.9771 97.4821 44.0077C97.4999 44.0382 97.511 44.0722 97.5149 44.1073C97.5187 44.1424 97.5151 44.178 97.5043 44.2117C97.4935 44.2453 97.4758 44.2763 97.4523 44.3027C97.4288 44.3291 97.4 44.3503 97.3678 44.3648L75.8903 56.7683C75.5153 56.9727 75.0947 57.0788 74.6676 57.0765V57.0765Z" fill="url(#paint14_linear_18_575)"/>
<path d="M35.6845 53.8835C35.6396 53.8836 35.5955 53.872 35.5566 53.8498C35.5176 53.8277 35.485 53.7957 35.4622 53.7571C35.4294 53.6988 35.4212 53.6299 35.4392 53.5655C35.4572 53.5011 35.5 53.4465 35.5582 53.4136L54.9642 42.1822C55.3409 41.9857 55.7594 41.883 56.1843 41.883C56.6092 41.883 57.0278 41.9857 57.4045 42.1822L73.6881 51.5796C73.9888 51.7291 74.3199 51.8069 74.6557 51.8069C74.9914 51.8069 75.3226 51.7291 75.6232 51.5796L92.9982 41.5507C93.0268 41.5299 93.0594 41.5154 93.0939 41.508C93.1285 41.5006 93.1643 41.5005 93.1988 41.5078C93.2334 41.5151 93.2661 41.5296 93.2947 41.5503C93.3234 41.571 93.3474 41.5975 93.3651 41.628C93.3829 41.6586 93.3941 41.6925 93.3979 41.7277C93.4017 41.7628 93.3981 41.7984 93.3873 41.832C93.3766 41.8657 93.3588 41.8967 93.3353 41.9231C93.3118 41.9495 93.283 41.9706 93.2508 41.9852L75.8758 52.0191C75.4984 52.2133 75.0801 52.3145 74.6557 52.3145C74.2312 52.3145 73.8129 52.2133 73.4355 52.0191L57.167 42.637C56.8664 42.4874 56.5352 42.4096 56.1995 42.4096C55.8637 42.4096 55.5326 42.4874 55.232 42.637L35.8108 53.8531C35.7715 53.8727 35.7283 53.8831 35.6845 53.8835Z" fill="url(#paint15_linear_18_575)"/>
<path d="M31.5712 51.5189C31.5265 51.5185 31.4826 51.5067 31.4437 51.4846C31.4048 51.4625 31.3722 51.4308 31.3489 51.3926C31.3175 51.334 31.31 51.2655 31.3279 51.2015C31.3458 51.1374 31.3877 51.0828 31.4449 51.049L54.9636 37.4633C55.3402 37.2667 55.7588 37.164 56.1837 37.164C56.6086 37.164 57.0272 37.2667 57.4038 37.4633L73.6875 46.8606C73.9881 47.0101 74.3193 47.0879 74.655 47.0879C74.9908 47.0879 75.3219 47.0101 75.6226 46.8606L89.0618 39.1002C89.1203 39.0688 89.1888 39.0613 89.2528 39.0792C89.3169 39.097 89.3715 39.139 89.4053 39.1962C89.4224 39.2246 89.4336 39.2562 89.4383 39.289C89.443 39.3218 89.441 39.3552 89.4325 39.3872C89.4241 39.4193 89.4092 39.4493 89.3889 39.4755C89.3686 39.5017 89.3433 39.5235 89.3144 39.5398L75.8752 47.3002C75.4978 47.4943 75.0795 47.5955 74.655 47.5955C74.2306 47.5955 73.8123 47.4943 73.4349 47.3002L57.1512 37.8978C56.8506 37.7482 56.5194 37.6704 56.1837 37.6704C55.8479 37.6704 55.5168 37.7482 55.2162 37.8978L31.7228 51.4835C31.6777 51.512 31.6243 51.5244 31.5712 51.5189V51.5189Z" fill="url(#paint16_linear_18_575)"/>
<path d="M27.4793 49.1444C27.4242 49.1438 27.3708 49.1252 27.3272 49.0915C27.2836 49.0577 27.2523 49.0106 27.238 48.9574C27.2236 48.9041 27.2271 48.8477 27.2479 48.7966C27.2687 48.7455 27.3056 48.7026 27.353 48.6745L54.964 32.7192C55.3415 32.5251 55.7598 32.4239 56.1842 32.4239C56.6086 32.4239 57.0269 32.5251 57.4043 32.7192L73.6829 42.1216C73.9844 42.2712 74.3164 42.349 74.653 42.349C74.9895 42.349 75.3215 42.2712 75.623 42.1216L84.788 36.8318C84.845 36.8061 84.9095 36.8024 84.969 36.8215C85.0286 36.8405 85.079 36.881 85.1104 36.9351C85.1418 36.9891 85.1521 37.0529 85.1392 37.1141C85.1263 37.1753 85.0912 37.2296 85.0406 37.2663L75.8757 42.5612C75.4973 42.7554 75.0782 42.8566 74.653 42.8566C74.2278 42.8566 73.8086 42.7554 73.4303 42.5612L57.1517 33.1588C56.8511 33.0093 56.5199 32.9315 56.1842 32.9315C55.8484 32.9315 55.5173 33.0093 55.2167 33.1588L27.5905 49.1141C27.556 49.132 27.5181 49.1423 27.4793 49.1444V49.1444Z" fill="url(#paint17_linear_18_575)"/>
<path opacity="0.75" d="M96.3164 45.0239C98.1551 45.0239 99.6457 43.4662 99.6457 41.5447C99.6457 39.6233 98.1551 38.0656 96.3164 38.0656C94.4777 38.0656 92.9871 39.6233 92.9871 41.5447C92.9871 43.4662 94.4777 45.0239 96.3164 45.0239Z" fill="#A3D4FF"/>
<path d="M117.507 10H82.5148C81.1378 10 80.0216 11.1224 80.0216 12.5069V36.7083C80.0216 38.0928 81.1378 39.2152 82.5148 39.2152H117.507C118.884 39.2152 120 38.0928 120 36.7083V12.5069C120 11.1224 118.884 10 117.507 10Z" fill="#A3D4FF"/>
<path d="M116.66 40.7529H81.8321C81.3924 40.7529 80.957 40.666 80.5507 40.4971C80.1445 40.3283 79.7753 40.0808 79.4644 39.7688C79.1535 39.4568 78.9069 39.0864 78.7386 38.6787C78.5703 38.2711 78.4837 37.8342 78.4837 37.3929V13.3599C78.4837 12.9187 78.5703 12.4818 78.7386 12.0741C78.9069 11.6665 79.1535 11.2961 79.4644 10.9841C79.7753 10.6721 80.1445 10.4246 80.5507 10.2558C80.957 10.0869 81.3924 10 81.8321 10H116.66C117.547 10.0023 118.396 10.3573 119.022 10.9872C119.648 11.617 120 12.4703 120 13.3599V37.3929C120 38.2825 119.648 39.1358 119.022 39.7657C118.396 40.3955 117.547 40.7506 116.66 40.7529V40.7529ZM81.8321 11.7409C81.6202 11.7409 81.4104 11.7828 81.2146 11.8641C81.0189 11.9455 80.841 12.0648 80.6912 12.2151C80.5414 12.3654 80.4225 12.5439 80.3414 12.7403C80.2603 12.9368 80.2186 13.1473 80.2186 13.3599V37.3929C80.2186 37.6056 80.2603 37.8161 80.3414 38.0125C80.4225 38.2089 80.5414 38.3874 80.6912 38.5378C80.841 38.6881 81.0189 38.8074 81.2146 38.8887C81.4104 38.9701 81.6202 39.012 81.8321 39.012H116.66C116.872 39.012 117.081 38.97 117.276 38.8886C117.472 38.8071 117.649 38.6877 117.798 38.5372C117.947 38.3868 118.065 38.2082 118.145 38.0119C118.226 37.8155 118.266 37.6051 118.265 37.3929V13.3599C118.266 13.1477 118.226 12.9374 118.145 12.741C118.065 12.5446 117.947 12.3661 117.798 12.2156C117.649 12.0652 117.472 11.9458 117.276 11.8643C117.081 11.7828 116.872 11.7409 116.66 11.7409H81.8321Z" fill="url(#paint18_linear_18_575)"/>
<path d="M104.624 39.2153H93.8601V46.9035H104.624V39.2153Z" fill="url(#paint19_linear_18_575)"/>
<path d="M105.253 48.4411H93.2306C92.9898 48.4411 92.7588 48.3559 92.5885 48.2041C92.4182 48.0523 92.3226 47.8465 92.3226 47.6318V40.0245C92.3226 39.8099 92.4182 39.6041 92.5885 39.4523C92.7588 39.3005 92.9898 39.2153 93.2306 39.2153H105.253C105.494 39.2153 105.725 39.3005 105.895 39.4523C106.066 39.6041 106.161 39.8099 106.161 40.0245V47.6318C106.161 47.8465 106.066 48.0523 105.895 48.2041C105.725 48.3559 105.494 48.4411 105.253 48.4411ZM94.1387 46.8225H104.345V40.8338H94.1387V46.8225Z" fill="url(#paint20_linear_18_575)"/>
<path d="M108.391 48.4411H90.0924C89.8682 48.4411 89.6533 48.3601 89.4947 48.2159C89.3362 48.0717 89.2472 47.8762 89.2472 47.6723C89.2472 47.4683 89.3362 47.2728 89.4947 47.1286C89.6533 46.9844 89.8682 46.9034 90.0924 46.9034H108.391C108.616 46.9034 108.83 46.9844 108.989 47.1286C109.148 47.2728 109.237 47.4683 109.237 47.6723C109.237 47.8762 109.148 48.0717 108.989 48.2159C108.83 48.3601 108.616 48.4411 108.391 48.4411Z" fill="url(#paint21_linear_18_575)"/>
<path opacity="0.75" d="M17.8328 81.8634C19.6716 81.8634 21.1622 80.3057 21.1622 78.3843C21.1622 76.4628 19.6716 74.9052 17.8328 74.9052C15.9941 74.9052 14.5035 76.4628 14.5035 78.3843C14.5035 80.3057 15.9941 81.8634 17.8328 81.8634Z" fill="#A3D4FF"/>
<path d="M39.023 46.8395H4.03076C2.65379 46.8395 1.53754 47.9619 1.53754 49.3464V73.5478C1.53754 74.9324 2.65379 76.0547 4.03076 76.0547H39.023C40.4 76.0547 41.5163 74.9324 41.5163 73.5478V49.3464C41.5163 47.9619 40.4 46.8395 39.023 46.8395Z" fill="#A3D4FF"/>
<path d="M38.1766 77.5924H3.34835C2.90864 77.5924 2.47323 77.5055 2.06698 77.3366C1.66074 77.1678 1.29162 76.9203 0.980694 76.6083C0.669769 76.2963 0.423127 75.9259 0.254855 75.5182C0.0865838 75.1106 -2.28882e-05 74.6737 -2.28882e-05 74.2324V50.1994C-2.28882e-05 49.7582 0.0865838 49.3213 0.254855 48.9136C0.423127 48.506 0.669769 48.1356 0.980694 47.8236C1.29162 47.5116 1.66074 47.2641 2.06698 47.0953C2.47323 46.9264 2.90864 46.8395 3.34835 46.8395H38.1766C39.0632 46.8418 39.9126 47.1968 40.5387 47.8267C41.1648 48.4565 41.5163 49.3098 41.5163 50.1994V74.2324C41.5163 75.122 41.1648 75.9753 40.5387 76.6052C39.9126 77.235 39.0632 77.5901 38.1766 77.5924V77.5924ZM3.34835 48.5804C3.13647 48.5804 2.92666 48.6223 2.7309 48.7036C2.53515 48.785 2.35729 48.9043 2.20746 49.0546C2.05764 49.2049 1.93879 49.3834 1.85771 49.5798C1.77662 49.7763 1.73489 49.9868 1.73489 50.1994V74.2324C1.73489 74.4451 1.77662 74.6556 1.85771 74.852C1.93879 75.0484 2.05764 75.2269 2.20746 75.3773C2.35729 75.5276 2.53515 75.6469 2.7309 75.7282C2.92666 75.8096 3.13647 75.8515 3.34835 75.8515H38.1766C38.3881 75.8515 38.5975 75.8095 38.7928 75.7281C38.988 75.6466 39.1653 75.5272 39.3145 75.3767C39.4636 75.2263 39.5816 75.0477 39.6618 74.8514C39.7419 74.655 39.7826 74.4446 39.7814 74.2324V50.1994C39.7826 49.9872 39.7419 49.7769 39.6618 49.5805C39.5816 49.3841 39.4636 49.2056 39.3145 49.0551C39.1653 48.9047 38.988 48.7853 38.7928 48.7038C38.5975 48.6223 38.3881 48.5804 38.1766 48.5804H3.34835Z" fill="#595959"/>
<path d="M26.1398 76.0545H15.3763V83.7427H26.1398V76.0545Z" fill="#595959"/>
<path d="M26.7692 85.2804H14.7466C14.5057 85.2804 14.2748 85.1951 14.1045 85.0434C13.9342 84.8916 13.8385 84.6857 13.8385 84.4711V76.8638C13.8385 76.6492 13.9342 76.4433 14.1045 76.2916C14.2748 76.1398 14.5057 76.0545 14.7466 76.0545H26.7692C27.0101 76.0545 27.241 76.1398 27.4113 76.2916C27.5816 76.4433 27.6773 76.6492 27.6773 76.8638V84.4711C27.6773 84.6857 27.5816 84.8916 27.4113 85.0434C27.241 85.1951 27.0101 85.2804 26.7692 85.2804ZM15.6546 83.6618H25.8612V77.6731H15.6546V83.6618Z" fill="#595959"/>
<path d="M29.9073 85.2806H11.6084C11.3842 85.2806 11.1692 85.1996 11.0107 85.0554C10.8522 84.9112 10.7631 84.7157 10.7631 84.5118C10.7631 84.3079 10.8522 84.1123 11.0107 83.9681C11.1692 83.824 11.3842 83.743 11.6084 83.743H29.9073C30.1315 83.743 30.3464 83.824 30.5049 83.9681C30.6635 84.1123 30.7525 84.3079 30.7525 84.5118C30.7525 84.7157 30.6635 84.9112 30.5049 85.0554C30.3464 85.1996 30.1315 85.2806 29.9073 85.2806Z" fill="#595959"/>
</g>
<defs>
<linearGradient id="paint0_linear_18_575" x1="17.3772" y1="160.527" x2="102.622" y2="160.527" gradientUnits="userSpaceOnUse">
<stop stop-color="#0052CC"/>
<stop offset="1" stop-color="#74B3F2"/>
</linearGradient>
<linearGradient id="paint1_linear_18_575" x1="12.2571" y1="130.345" x2="59.8444" y2="130.345" gradientUnits="userSpaceOnUse">
<stop stop-color="#0052CC"/>
<stop offset="1" stop-color="#74B3F2"/>
</linearGradient>
<linearGradient id="paint2_linear_18_575" x1="59.8448" y1="130.369" x2="107.743" y2="130.369" gradientUnits="userSpaceOnUse">
<stop stop-color="#0052CC"/>
<stop offset="1" stop-color="#74B3F2"/>
</linearGradient>
<linearGradient id="paint3_linear_18_575" x1="0.0225601" y1="179.997" x2="60.1549" y2="179.997" gradientUnits="userSpaceOnUse">
<stop stop-color="#0052CC"/>
<stop offset="1" stop-color="#74B3F2"/>
</linearGradient>
<linearGradient id="paint4_linear_18_575" x1="60.1552" y1="179.999" x2="120" y2="179.999" gradientUnits="userSpaceOnUse">
<stop stop-color="#0052CC"/>
<stop offset="1" stop-color="#74B3F2"/>
</linearGradient>
<linearGradient id="paint5_linear_18_575" x1="59.9862" y1="160.625" x2="59.9862" y2="-30.1024" gradientUnits="userSpaceOnUse">
<stop stop-color="#0069D3"/>
<stop offset="0.135417" stop-color="#237DD9" stop-opacity="0.878125"/>
<stop offset="0.135517" stop-color="#237DD9" stop-opacity="0.878125"/>
<stop offset="0.307292" stop-color="#5DA0E3" stop-opacity="0.671941"/>
<stop offset="0.473958" stop-color="#86B8EA" stop-opacity="0.528375"/>
<stop offset="0.6875" stop-color="white" stop-opacity="0.1"/>
</linearGradient>
<linearGradient id="paint6_linear_18_575" x1="29.6388" y1="64.7754" x2="91.6255" y2="64.7754" gradientUnits="userSpaceOnUse">
<stop stop-color="#0052CC"/>
<stop offset="1" stop-color="#74B3F2"/>
</linearGradient>
<linearGradient id="paint7_linear_18_575" x1="12" y1="66.1814" x2="55.6526" y2="66.1814" gradientUnits="userSpaceOnUse">
<stop stop-color="#0052CC"/>
<stop offset="1" stop-color="#74B3F2"/>
</linearGradient>
<linearGradient id="paint8_linear_18_575" x1="75.2606" y1="64.7754" x2="108" y2="64.7754" gradientUnits="userSpaceOnUse">
<stop stop-color="#0052CC"/>
<stop offset="1" stop-color="#74B3F2"/>
</linearGradient>
<linearGradient id="paint9_linear_18_575" x1="69.6481" y1="74.6664" x2="76.1437" y2="74.6664" gradientUnits="userSpaceOnUse">
<stop stop-color="#0052CC"/>
<stop offset="1" stop-color="#74B3F2"/>
</linearGradient>
<linearGradient id="paint10_linear_18_575" x1="95.2243" y1="25.0301" x2="104.968" y2="25.0301" gradientUnits="userSpaceOnUse">
<stop stop-color="#0052CC"/>
<stop offset="1" stop-color="#74B3F2"/>
</linearGradient>
<linearGradient id="paint11_linear_18_575" x1="26.2091" y1="8.48479" x2="34.3286" y2="8.48479" gradientUnits="userSpaceOnUse">
<stop stop-color="#0052CC"/>
<stop offset="1" stop-color="#74B3F2"/>
</linearGradient>
<linearGradient id="paint12_linear_18_575" x1="81.0152" y1="6.36371" x2="85.0749" y2="6.36372" gradientUnits="userSpaceOnUse">
<stop stop-color="#0052CC"/>
<stop offset="1" stop-color="#74B3F2"/>
</linearGradient>
<linearGradient id="paint13_linear_18_575" x1="46.4497" y1="69.9569" x2="57.6561" y2="69.9569" gradientUnits="userSpaceOnUse">
<stop stop-color="#0052CC"/>
<stop offset="1" stop-color="#74B3F2"/>
</linearGradient>
<linearGradient id="paint14_linear_18_575" x1="39.5064" y1="57.0768" x2="97.5163" y2="57.0768" gradientUnits="userSpaceOnUse">
<stop stop-color="#0052CC"/>
<stop offset="1" stop-color="#74B3F2"/>
</linearGradient>
<linearGradient id="paint15_linear_18_575" x1="35.4298" y1="53.8834" x2="93.3994" y2="53.8834" gradientUnits="userSpaceOnUse">
<stop stop-color="#0052CC"/>
<stop offset="1" stop-color="#74B3F2"/>
</linearGradient>
<linearGradient id="paint16_linear_18_575" x1="31.3184" y1="51.5201" x2="89.4408" y2="51.5201" gradientUnits="userSpaceOnUse">
<stop stop-color="#0052CC"/>
<stop offset="1" stop-color="#74B3F2"/>
</linearGradient>
<linearGradient id="paint17_linear_18_575" x1="27.2293" y1="49.1443" x2="85.1446" y2="49.1443" gradientUnits="userSpaceOnUse">
<stop stop-color="#0052CC"/>
<stop offset="1" stop-color="#74B3F2"/>
</linearGradient>
<linearGradient id="paint18_linear_18_575" x1="78.4837" y1="40.7527" x2="120" y2="40.7527" gradientUnits="userSpaceOnUse">
<stop stop-color="#0052CC"/>
<stop offset="1" stop-color="#74B3F2"/>
</linearGradient>
<linearGradient id="paint19_linear_18_575" x1="93.8601" y1="46.9034" x2="104.624" y2="46.9034" gradientUnits="userSpaceOnUse">
<stop stop-color="#0052CC"/>
<stop offset="1" stop-color="#74B3F2"/>
</linearGradient>
<linearGradient id="paint20_linear_18_575" x1="92.3226" y1="48.4411" x2="106.161" y2="48.4411" gradientUnits="userSpaceOnUse">
<stop stop-color="#0052CC"/>
<stop offset="1" stop-color="#74B3F2"/>
</linearGradient>
<linearGradient id="paint21_linear_18_575" x1="89.2472" y1="48.4411" x2="109.237" y2="48.4411" gradientUnits="userSpaceOnUse">
<stop stop-color="#0052CC"/>
<stop offset="1" stop-color="#74B3F2"/>
</linearGradient>
<clipPath id="clip0_18_575">
<rect width="120" height="180" fill="white"/>
</clipPath>
</defs>
</svg>
