<svg width="128" height="24" viewBox="0 0 128 24" fill="none" xmlns="http://www.w3.org/2000/svg">
<g clip-path="url(#clip0_18_693)">
<path d="M22.896 0.900716C22.4013 0.898904 21.9141 1.02158 21.4792 1.25745C21.0443 1.49333 20.6758 1.83481 20.4075 2.25047C20.1393 2.66612 19.9799 3.14259 19.9441 3.636C19.9083 4.12941 19.9971 4.62391 20.2026 5.07395L14.7657 9.74722C14.1302 9.27421 13.3605 9.01577 12.5683 9.00934H12.5183L12.0547 7.07002C12.5574 6.74096 12.9271 6.24443 13.0984 5.66859C13.2696 5.09275 13.2313 4.47485 12.9902 3.9246C12.749 3.37434 12.3207 2.92734 11.7813 2.66294C11.2418 2.39854 10.6261 2.33385 10.0435 2.48036C9.46086 2.62687 8.94899 2.9751 8.59877 3.46323C8.24855 3.95135 8.08263 4.54779 8.13046 5.14665C8.1783 5.74551 8.43679 6.30805 8.86006 6.73439C9.28333 7.16073 9.84398 7.42329 10.4425 7.47546L10.9074 9.41477C10.334 9.7016 9.84538 10.1331 9.48985 10.6666C9.13433 11.2002 8.92419 11.8172 8.88022 12.4569L5.63677 12.9555C5.33663 12.3086 4.81308 11.7917 4.16235 11.4999C3.51161 11.2081 2.77742 11.1609 2.0947 11.3671C1.41198 11.5733 0.826621 12.019 0.446197 12.6222C0.0657742 13.2254 -0.084147 13.9457 0.0239885 14.6506C0.132124 15.3555 0.49105 15.9978 1.0348 16.4592C1.57855 16.9207 2.27058 17.1704 2.98371 17.1625C3.69684 17.1545 4.38314 16.8895 4.91648 16.416C5.44982 15.9426 5.79437 15.2925 5.88678 14.5854L9.13023 14.0867C9.40557 14.7735 9.8801 15.3623 10.4928 15.7773C11.1055 16.1922 11.8283 16.4144 12.5683 16.4152C13.2622 16.4115 13.9414 16.2155 14.5306 15.849L17.3686 18.7086C17.0544 19.2769 16.9358 19.9328 17.031 20.5751C17.1262 21.2175 17.4299 21.8107 17.8953 22.2635C18.3608 22.7163 18.9622 23.0036 19.6069 23.081C20.2517 23.1584 20.904 23.0218 21.4634 22.692C22.0229 22.3623 22.4584 21.8578 22.703 21.2563C22.9475 20.6547 22.9876 19.9895 22.8169 19.3629C22.6462 18.7364 22.2743 18.1833 21.7585 17.7889C21.2426 17.3945 20.6114 17.1806 19.962 17.1801C19.4673 17.1788 18.9806 17.3044 18.5484 17.545L15.7104 14.6854C16.0915 14.096 16.2938 13.4088 16.2928 12.7069C16.2975 12.1081 16.1486 11.5181 15.8604 10.9932L21.2972 6.32133C21.7433 6.61308 22.2601 6.77875 22.7926 6.8008C23.3252 6.82285 23.8539 6.70045 24.3226 6.44656C24.7913 6.19268 25.1826 5.81677 25.4551 5.35863C25.7276 4.9005 25.8711 4.37719 25.8705 3.84415C25.8588 3.06176 25.5407 2.31517 24.9845 1.76479C24.4283 1.21441 23.6784 0.904168 22.896 0.900716V0.900716Z" fill="#0052CC"/>
<path d="M29.7558 20.6682V5.91864H38.4401V8.57827H32.9087V11.6109H38.4401V14.2908H32.9087V20.6682H29.7558Z" fill="#0052CC"/>
<path d="M39.6403 20.6682V5.91864H43.2676C45.201 5.91864 46.63 6.28803 47.5543 7.02682C48.4787 7.7656 48.9405 8.90712 48.9396 10.4514C48.9396 11.883 48.4747 13.0047 47.5449 13.8164C46.6151 14.6282 45.3272 15.0336 43.6811 15.0327H42.8135V20.6655L39.6403 20.6682ZM42.8135 12.5772H43.2676C44.1271 12.5772 44.7519 12.397 45.142 12.0366C45.5321 11.6762 45.7267 11.1055 45.7258 10.3243C45.7258 9.59815 45.5312 9.06929 45.142 8.73774C44.7528 8.40619 44.128 8.23996 43.2676 8.23906H42.8135V12.5772Z" fill="#0052CC"/>
<path d="M56.9495 8.60395V20.6736H53.7872V8.60395H50.1788V5.91864H60.5565V8.60395H56.9495Z" fill="#0052CC"/>
<path d="M76.1169 9.88908C75.5763 9.38935 74.95 8.99107 74.2682 8.71333C73.6141 8.45782 72.9175 8.32894 72.2153 8.33358C70.7188 8.33358 69.5264 8.7809 68.6381 9.67555C67.7497 10.5702 67.3042 11.7725 67.3015 13.2825C67.3015 14.761 67.7137 15.9323 68.5381 16.7963C69.3625 17.6603 70.4887 18.0937 71.9167 18.0964C73.4752 18.1186 74.9813 17.5342 76.1169 16.4665V19.5329C75.4833 19.9091 74.8013 20.1969 74.0898 20.3884C73.3684 20.5765 72.6257 20.6701 71.8802 20.6668C69.6422 20.6668 67.8056 19.9713 66.3704 18.5802C64.9351 17.1891 64.2171 15.4232 64.2162 13.2825C64.2162 11.1491 64.937 9.3877 66.3785 7.99842C67.82 6.60914 69.6728 5.91585 71.9369 5.91856C72.6787 5.91647 73.4184 5.9967 74.1425 6.15776C74.8257 6.30171 75.4888 6.52863 76.1169 6.83348V9.88908Z" fill="#0052CC"/>
<path d="M77.3156 20.6682V5.91864H80.4699V17.9883H85.5067V20.6682H77.3156Z" fill="#0052CC"/>
<path d="M100.293 13.2934C100.298 14.2712 100.11 15.2403 99.7386 16.145C99.375 17.0333 98.8327 17.8374 98.1453 18.5073C97.4448 19.1931 96.6189 19.7377 95.7127 20.1114C94.0286 20.81 92.144 20.8529 90.4299 20.2317C89.6219 19.9418 88.8685 19.5178 88.2014 18.9776C87.3512 18.2987 86.6672 17.4349 86.2013 16.4518C85.7355 15.4645 85.4976 14.3851 85.5053 13.2934C85.4981 12.3173 85.6846 11.3495 86.0539 10.446C86.4226 9.55515 86.97 8.74933 87.6622 8.07825C89.0639 6.70132 90.9476 5.92556 92.9125 5.91595C93.8787 5.91577 94.8353 6.10827 95.7262 6.48221C96.6274 6.85219 97.4485 7.39327 98.1439 8.07555C98.8318 8.74982 99.3757 9.5567 99.7427 10.4473C100.111 11.3507 100.298 12.3178 100.293 13.2934V13.2934ZM92.9138 17.9883C94.168 17.9883 95.2041 17.5419 96.0222 16.6491C96.8402 15.7562 97.2488 14.6377 97.2479 13.2934C97.2479 11.9609 96.8348 10.8406 96.0086 9.93243C95.6127 9.50312 95.132 9.16049 94.5971 8.92615C94.0621 8.6918 93.4844 8.57081 92.9003 8.57081C92.3163 8.57081 91.7386 8.6918 91.2036 8.92615C90.6686 9.16049 90.188 9.50312 89.792 9.93243C88.9658 10.8388 88.5528 11.9609 88.5528 13.2989C88.5528 14.6557 88.9582 15.7774 89.769 16.6639C90.5799 17.5505 91.6282 17.9919 92.9138 17.9883Z" fill="#0052CC"/>
<path d="M113.906 5.91864V14.8584C113.906 16.8081 113.392 18.2636 112.365 19.2249C111.338 20.1862 109.791 20.6673 107.724 20.6682C105.624 20.6682 104.061 20.1871 103.034 19.2249C102.006 18.2627 101.493 16.8072 101.493 14.8584V5.91864H104.546V14.3773C104.546 15.5611 104.808 16.4526 105.331 17.0518C105.854 17.6509 106.636 17.95 107.676 17.9491C108.724 17.9491 109.516 17.6482 110.052 17.0464C110.588 16.4445 110.856 15.5548 110.856 14.3773V5.91864H113.906Z" fill="#0052CC"/>
<path d="M115.103 20.6682V5.91864H119.124C120.707 5.91864 121.957 6.02946 122.871 6.25109C123.741 6.45252 124.56 6.82964 125.278 7.35927C126.158 8.00969 126.856 8.87524 127.305 9.87294C127.781 10.96 128.016 12.1368 127.996 13.3232C127.996 14.6323 127.761 15.7927 127.29 16.8045C126.829 17.8035 126.117 18.6662 125.224 19.3087C124.549 19.7928 123.789 20.1462 122.983 20.3506C122.161 20.5615 120.957 20.6673 119.371 20.6682H115.103ZM118.251 18.0086H120.007C121.659 18.0086 122.863 17.6324 123.618 16.8801C124.374 16.1278 124.752 14.9354 124.752 13.3029C124.752 11.6812 124.374 10.4906 123.618 9.73104C122.863 8.97154 121.659 8.59584 120.007 8.60395H118.251V18.0086Z" fill="#0052CC"/>
</g>
<defs>
<clipPath id="clip0_18_693">
<rect width="128" height="22.1987" fill="white" transform="translate(0 0.900635)"/>
</clipPath>
</defs>
</svg>
