<svg width="48" height="61" viewBox="0 0 48 61" fill="none" xmlns="http://www.w3.org/2000/svg">
<path d="M0.0580292 6.72324V54.228C0.0580292 57.7992 10.6485 60.723 23.7115 60.723C36.7744 60.723 47.3649 57.817 47.3649 54.228V6.72324H0.0580292Z" fill="url(#paint0_linear_18_138877)"/>
<path d="M23.7154 13.2182C36.7789 13.2182 47.3689 10.3103 47.3689 6.72325C47.3689 3.13617 36.7789 0.228279 23.7154 0.228279C10.652 0.228279 0.0619583 3.13617 0.0619583 6.72325C0.0619583 10.3103 10.652 13.2182 23.7154 13.2182Z" fill="url(#paint1_linear_18_138877)"/>
<path opacity="0.47" d="M23.7154 13.2182C36.7789 13.2182 47.3689 10.3103 47.3689 6.72325C47.3689 3.13617 36.7789 0.228279 23.7154 0.228279C10.652 0.228279 0.0619583 3.13617 0.0619583 6.72325C0.0619583 10.3103 10.652 13.2182 23.7154 13.2182Z" fill="white"/>
<path opacity="0.09" d="M0.0580292 23.4673C0.0580292 23.4673 21.4354 31.4756 47.3649 23.4673V40.0507C47.3649 40.0507 25.5324 49.7775 0.0580292 40.0507V23.4673Z" fill="#000E33"/>
<path d="M3.31583 17.1152C3.31583 17.1152 7.77875 20.1908 18.8155 20.0792" stroke="white" stroke-width="1.015" stroke-miterlimit="10"/>
<path d="M3.31583 32.4621C3.31583 32.4621 7.77875 35.5422 18.8155 35.4261" stroke="white" stroke-width="1.015" stroke-miterlimit="10"/>
<path d="M3.31583 49.1794C3.31583 49.1794 7.77875 52.2594 18.8155 52.1434" stroke="white" stroke-width="1.015" stroke-miterlimit="10"/>
<defs>
<linearGradient id="paint0_linear_18_138877" x1="0.0580292" y1="60.7227" x2="47.3649" y2="60.7227" gradientUnits="userSpaceOnUse">
<stop stop-color="#0052CC"/>
<stop offset="1" stop-color="#74B3F2"/>
</linearGradient>
<linearGradient id="paint1_linear_18_138877" x1="0.0619583" y1="13.2181" x2="47.3689" y2="13.2181" gradientUnits="userSpaceOnUse">
<stop stop-color="#0052CC"/>
<stop offset="1" stop-color="#74B3F2"/>
</linearGradient>
</defs>
</svg>
