<svg width="45" height="48" viewBox="0 0 45 48" fill="none" xmlns="http://www.w3.org/2000/svg">
<path d="M0.226421 47.6479L44.8418 47.6479L44.8418 0.36956L0.226421 0.36956L0.226421 47.6479Z" fill="#D9D9D9"/>
<path d="M5.07043 6.83301C6.01447 6.83301 6.77977 6.09762 6.77977 5.19046C6.77977 4.2833 6.01447 3.5479 5.07043 3.5479C4.1264 3.5479 3.36111 4.2833 3.36111 5.19046C3.36111 6.09762 4.1264 6.83301 5.07043 6.83301Z" fill="url(#paint0_linear_18_125678)"/>
<path d="M9.88366 6.83301C10.8277 6.83301 11.593 6.09762 11.593 5.19046C11.593 4.2833 10.8277 3.5479 9.88366 3.5479C8.93962 3.5479 8.17432 4.2833 8.17432 5.19046C8.17432 6.09762 8.93962 6.83301 9.88366 6.83301Z" fill="url(#paint1_linear_18_125678)"/>
<path d="M14.4933 6.83301C15.4373 6.83301 16.2026 6.09762 16.2026 5.19046C16.2026 4.2833 15.4373 3.5479 14.4933 3.5479C13.5493 3.5479 12.784 4.2833 12.784 5.19046C12.784 6.09762 13.5493 6.83301 14.4933 6.83301Z" fill="#000E33"/>
<path d="M22.5339 31.3469C27.7892 31.3469 32.0494 27.2531 32.0494 22.2031C32.0494 17.1532 27.7892 13.0594 22.5339 13.0594C17.2787 13.0594 13.0185 17.1532 13.0185 22.2031C13.0185 27.2531 17.2787 31.3469 22.5339 31.3469Z" fill="#000E33"/>
<path d="M22.5524 22.209L31.3521 18.7341C31.3521 18.7341 29.6736 13.2609 22.7807 13.0712L22.5524 22.209Z" fill="url(#paint2_linear_18_125678)"/>
<path d="M22.5524 22.209L31.315 25.7669C31.8085 24.653 32.0659 23.4558 32.0723 22.2452C32.0787 21.0346 31.8338 19.8349 31.3521 18.7163L22.5524 22.209Z" fill="white"/>
<path opacity="0.19" d="M31.6486 38.931H13.4816V42.3584H31.6486V38.931Z" fill="#595959"/>
<defs>
<linearGradient id="paint0_linear_18_125678" x1="3.36111" y1="6.83299" x2="6.77977" y2="6.83299" gradientUnits="userSpaceOnUse">
<stop stop-color="#0052CC"/>
<stop offset="1" stop-color="#74B3F2"/>
</linearGradient>
<linearGradient id="paint1_linear_18_125678" x1="8.17432" y1="6.83299" x2="11.593" y2="6.83299" gradientUnits="userSpaceOnUse">
<stop stop-color="#0052CC"/>
<stop offset="1" stop-color="#74B3F2"/>
</linearGradient>
<linearGradient id="paint2_linear_18_125678" x1="22.5524" y1="22.2089" x2="31.3521" y2="22.2089" gradientUnits="userSpaceOnUse">
<stop stop-color="#0052CC"/>
<stop offset="1" stop-color="#74B3F2"/>
</linearGradient>
</defs>
</svg>
