<svg width="25" height="24" viewBox="0 0 25 24" fill="none" xmlns="http://www.w3.org/2000/svg">
<path d="M8.69569 6.30698C9.12969 6.07498 9.59669 6.00098 10.0517 6.00098C10.5777 6.00098 11.1897 6.17398 11.6837 6.57798C12.2007 7.00198 12.5517 7.65198 12.5517 8.49998C12.5517 9.47498 11.8627 10.004 11.4747 10.302L11.3897 10.368C10.9657 10.701 10.8017 10.879 10.8017 11.25C10.8017 11.4489 10.7227 11.6397 10.582 11.7803C10.4414 11.921 10.2506 12 10.0517 12C9.85278 12 9.66201 11.921 9.52136 11.7803C9.38071 11.6397 9.30169 11.4489 9.30169 11.25C9.30169 10.116 10.0127 9.54198 10.4637 9.18798C10.9767 8.78498 11.0517 8.69498 11.0517 8.49998C11.0517 8.10298 10.9027 7.87798 10.7317 7.73898C10.5377 7.58622 10.2986 7.50216 10.0517 7.49998C9.75669 7.49998 9.55369 7.54898 9.40169 7.62998C9.25869 7.70598 9.10769 7.83998 8.96169 8.10998C8.91474 8.19665 8.85118 8.27323 8.77464 8.33533C8.6981 8.39744 8.61007 8.44387 8.51559 8.47196C8.42111 8.50005 8.32202 8.50925 8.22397 8.49905C8.12593 8.48884 8.03086 8.45942 7.94419 8.41248C7.85752 8.36553 7.78094 8.30197 7.71883 8.22543C7.65672 8.14889 7.6103 8.06086 7.58221 7.96638C7.55412 7.87189 7.54491 7.7728 7.55512 7.67476C7.56533 7.57672 7.59474 7.48165 7.64169 7.39498C7.90569 6.90898 8.25369 6.54298 8.69569 6.30698ZM10.0517 15C10.3169 15 10.5713 14.8946 10.7588 14.7071C10.9463 14.5195 11.0517 14.2652 11.0517 14C11.0517 13.7348 10.9463 13.4804 10.7588 13.2929C10.5713 13.1053 10.3169 13 10.0517 13C9.78647 13 9.53212 13.1053 9.34458 13.2929C9.15705 13.4804 9.05169 13.7348 9.05169 14C9.05169 14.2652 9.15705 14.5195 9.34458 14.7071C9.53212 14.8946 9.78647 15 10.0517 15Z" fill="#595959"/>
<path d="M10.0517 3C8.7902 2.99979 7.54903 3.31778 6.44304 3.92454C5.33705 4.5313 4.40197 5.40724 3.72435 6.47129C3.04672 7.53533 2.64843 8.75311 2.56634 10.0119C2.48424 11.2708 2.721 12.53 3.2547 13.673L2.5297 16.515C2.47649 16.7238 2.47813 16.9427 2.53447 17.1507C2.59081 17.3586 2.69994 17.5484 2.85126 17.7018C3.00259 17.8551 3.19098 17.9667 3.39815 18.0258C3.60533 18.0849 3.82426 18.0895 4.0337 18.039C4.7837 17.859 5.9367 17.582 6.9637 17.337C7.98338 17.7968 9.093 18.0227 10.2113 17.9982C11.3296 17.9737 12.4282 17.6993 13.4268 17.1952C14.4253 16.6911 15.2984 15.9701 15.9822 15.0848C16.666 14.1996 17.1431 13.1727 17.3786 12.0792C17.6142 10.9857 17.6021 9.85338 17.3434 8.76516C17.0846 7.67694 16.5858 6.66037 15.8833 5.7899C15.1808 4.91943 14.2926 4.21712 13.2835 3.73439C12.2745 3.25165 11.1703 3.00073 10.0517 3ZM4.0517 10.5C4.0521 9.1953 4.47776 7.92628 5.26418 6.88523C6.05061 5.84419 7.15494 5.08785 8.40984 4.73083C9.66475 4.37381 11.0018 4.43556 12.2185 4.90672C13.4351 5.37789 14.4651 6.23279 15.1522 7.34189C15.8393 8.45099 16.1462 9.75384 16.0263 11.053C15.9065 12.3522 15.3664 13.5769 14.4879 14.5416C13.6095 15.5062 12.4406 16.1583 11.1582 16.3989C9.87591 16.6395 8.5501 16.4556 7.3817 15.875L7.1387 15.754L6.8737 15.817L4.0857 16.484C4.2857 15.704 4.5477 14.672 4.7757 13.776L4.8457 13.5L4.7157 13.247C4.27774 12.3977 4.05003 11.4556 4.0517 10.5Z" fill="#595959"/>
<path d="M15.0517 21C13.0817 21 11.2907 20.241 9.95172 19H10.0517C10.7697 19 11.4667 18.911 12.1327 18.743C12.9967 19.225 13.9927 19.5 15.0527 19.5C16.0127 19.5 16.9187 19.275 17.7217 18.875L17.9647 18.754L18.2297 18.817C19.1507 19.037 20.1947 19.262 20.9697 19.427C20.7937 18.676 20.5547 17.671 20.3277 16.776L20.2577 16.5L20.3877 16.247C20.8257 15.3977 21.0534 14.4556 21.0517 13.5C21.0522 12.4969 20.801 11.5096 20.3211 10.6288C19.8412 9.74787 19.1479 9.0015 18.3047 8.45801C18.1284 7.74374 17.8594 7.05557 17.5047 6.41101C18.4975 6.75476 19.4069 7.30316 20.1743 8.0207C20.9416 8.73824 21.5497 9.60893 21.9592 10.5764C22.3687 11.5439 22.5705 12.5865 22.5515 13.6369C22.5324 14.6873 22.293 15.722 21.8487 16.674C22.1017 17.682 22.3587 18.774 22.5207 19.477C22.5683 19.6808 22.5637 19.8932 22.5073 20.0948C22.451 20.2963 22.3447 20.4803 22.1984 20.6299C22.052 20.7794 21.8703 20.8896 21.67 20.9503C21.4698 21.011 21.2575 21.0202 21.0527 20.977C20.3257 20.825 19.1827 20.581 18.1397 20.337C17.1693 20.7754 16.1165 21.0014 15.0517 21Z" fill="#595959"/>
</svg>
