<svg width="24" height="24" viewBox="0 0 24 24" fill="none" xmlns="http://www.w3.org/2000/svg">
<path d="M7.55556 13.8182C6.94191 13.8182 6.44444 14.2252 6.44444 14.7273C6.44444 15.2293 6.94191 15.6364 7.55556 15.6364H15.3333C15.947 15.6364 16.4444 15.2293 16.4444 14.7273C16.4444 14.2252 15.947 13.8182 15.3333 13.8182H7.55556Z" fill="#595959"/>
<path d="M6.44444 17.4545C6.44444 16.9525 6.94191 16.5455 7.55556 16.5455H11.4444C12.0581 16.5455 12.5556 16.9525 12.5556 17.4545C12.5556 17.9566 12.0581 18.3636 11.4444 18.3636H7.55556C6.94191 18.3636 6.44444 17.9566 6.44444 17.4545Z" fill="#595959"/>
<path fill-rule="evenodd" clip-rule="evenodd" d="M7.55556 5.63636C6.94191 5.63636 6.44444 6.04338 6.44444 6.54545V11.0909C6.44444 11.593 6.94191 12 7.55556 12H15.3333C15.947 12 16.4444 11.593 16.4444 11.0909V6.54545C16.4444 6.04338 15.947 5.63636 15.3333 5.63636H7.55556Z" fill="#595959"/>
<path fill-rule="evenodd" clip-rule="evenodd" d="M4.22222 2C2.99492 2 2 2.81403 2 3.81818V20.1818C2 21.186 2.99493 22 4.22222 22H19.7778C21.0051 22 22 21.186 22 20.1818V3.81818C22 2.81404 21.0051 2 19.7778 2H4.22222ZM4.22222 3.81818H19.7778V20.1818H4.22222V3.81818Z" fill="#595959"/>
</svg>
