<svg width="25" height="24" viewBox="0 0 25 24" fill="none" xmlns="http://www.w3.org/2000/svg">
<path d="M3.31319 2.05811L22.2857 11.5889C22.3663 11.6294 22.4334 11.6889 22.4802 11.7612C22.527 11.8335 22.5517 11.916 22.5517 12C22.5517 12.084 22.527 12.1665 22.4802 12.2388C22.4334 12.3111 22.3663 12.3706 22.2857 12.4111L3.31319 21.9419C3.23496 21.9812 3.14686 22.0012 3.05758 21.9999C2.9683 21.9987 2.88093 21.9762 2.80406 21.9347C2.7272 21.8932 2.6635 21.8341 2.61925 21.7633C2.57499 21.6925 2.55171 21.6123 2.5517 21.5308L2.5517 2.46923C2.55171 2.38768 2.57499 2.30754 2.61925 2.23671C2.6635 2.16587 2.7272 2.1068 2.80406 2.0653C2.88093 2.0238 2.9683 2.00132 3.05758 2.00006C3.14686 1.9988 3.23496 2.01881 3.31319 2.05811ZM4.607 12.9386L4.607 19.1495L18.84 12L4.607 4.85051V11.0614H8.80664C9.32502 11.0614 9.74526 11.4816 9.74526 12V12C9.74526 12.5184 9.32502 12.9386 8.80664 12.9386H4.607Z" fill="#595959"/>
</svg>
