<svg width="16" height="16" viewBox="0 0 16 16" fill="none" xmlns="http://www.w3.org/2000/svg">
<path d="M12.0206 11.078L14.876 13.9326L13.9326 14.876L11.078 12.0206C10.0158 12.8721 8.69465 13.3353 7.33331 13.3333C4.02131 13.3333 1.33331 10.6453 1.33331 7.33331C1.33331 4.02131 4.02131 1.33331 7.33331 1.33331C10.6453 1.33331 13.3333 4.02131 13.3333 7.33331C13.3353 8.69465 12.8721 10.0158 12.0206 11.078ZM10.6833 10.5833C11.5294 9.71324 12.0019 8.54693 12 7.33331C12 4.75465 9.91131 2.66665 7.33331 2.66665C4.75465 2.66665 2.66665 4.75465 2.66665 7.33331C2.66665 9.91131 4.75465 12 7.33331 12C8.54693 12.0019 9.71324 11.5294 10.5833 10.6833L10.6833 10.5833V10.5833Z" fill="#595959"/>
</svg>
