<svg width="24" height="24" viewBox="0 0 24 24" fill="none" xmlns="http://www.w3.org/2000/svg">
<path fill-rule="evenodd" clip-rule="evenodd" d="M19.4961 8.25727C19.368 4.22748 16.0609 1 11.9999 1C7.8578 1 4.49994 4.35787 4.49994 8.5C4.49994 12.3031 7.33058 15.445 10.9999 15.9339V17.1707C10.1475 17.472 9.47194 18.1476 9.17065 19H2.99994L2.88332 19.0067C2.38598 19.0645 1.99994 19.4872 1.99994 20C1.99994 20.5523 2.44765 21 2.99994 21H9.17065C9.58249 22.1652 10.6937 23 11.9999 23C13.3061 23 14.4174 22.1652 14.8292 21H20.9999L21.1166 20.9933C21.6139 20.9355 21.9999 20.5128 21.9999 20C21.9999 19.4477 21.5522 19 20.9999 19H14.8292C14.5279 18.1476 13.8523 17.472 12.9999 17.1707V15.9339C16.6693 15.445 19.4999 12.3031 19.4999 8.5C19.4999 8.48917 19.4998 8.47839 19.4994 8.46764L19.4961 8.25727ZM17.4093 7.5C17.1166 5.9069 16.1375 4.55397 14.79 3.7592C15.1643 4.8109 15.3983 6.09738 15.4735 7.5H17.4093ZM13.4671 7.5C13.4072 6.58963 13.2701 5.76238 13.0955 5.0726L12.9902 4.68775L12.8782 4.3362C12.5913 3.50091 12.2579 3 11.9999 3C11.742 3 11.4086 3.50091 11.1217 4.3362L11.0097 4.68775L10.9044 5.0726C10.7298 5.76238 10.5927 6.58963 10.5328 7.5H13.4671ZM8.52639 7.5C8.60156 6.09738 8.83554 4.8109 9.20988 3.7592C7.86234 4.55397 6.88326 5.9069 6.59063 7.5H8.52639ZM6.59078 9.5008H8.52643C8.60165 10.9031 8.83561 12.1893 9.20988 13.2408C7.86256 12.4462 6.88359 11.0936 6.59078 9.5008ZM17.4091 9.5008C17.1163 11.0936 16.1373 12.4462 14.79 13.2408C15.1643 12.1893 15.3982 10.9031 15.4735 9.5008H17.4091ZM13.0955 11.9274C13.27 11.2378 13.4071 10.4109 13.467 9.5008H10.5328C10.5928 10.4109 10.7299 11.2378 10.9044 11.9274L11.0097 12.3122L11.1217 12.6638C11.4086 13.4991 11.742 14 11.9999 14C12.2579 14 12.5913 13.4991 12.8782 12.6638L12.9902 12.3122L13.0955 11.9274ZM11.9999 19C12.5522 19 12.9999 19.4477 12.9999 20C12.9999 20.5523 12.5522 21 11.9999 21C11.4477 21 10.9999 20.5523 10.9999 20C10.9999 19.4477 11.4477 19 11.9999 19Z" fill="#58617E"/>
</svg>
