<svg width="24" height="24" viewBox="0 0 24 24" fill="none" xmlns="http://www.w3.org/2000/svg">
<path d="M7 9.36842C7.57834 9.36825 8.13874 9.15701 8.58571 8.77069C9.03269 8.38438 9.33861 7.84688 9.45133 7.24978C9.56406 6.65268 9.47663 6.0329 9.20394 5.49604C8.93125 4.95918 8.49017 4.53844 7.95584 4.30551C7.4215 4.07258 6.82698 4.04186 6.27354 4.21859C5.72011 4.39531 5.242 4.76856 4.92067 5.27472C4.59934 5.78089 4.45467 6.38867 4.5113 6.99453C4.56793 7.60038 4.82236 8.16683 5.23125 8.59737C5.46349 8.84191 5.73924 9.03587 6.04273 9.16817C6.34622 9.30047 6.67151 9.36852 7 9.36842V9.36842ZM7 11.4737C5.95885 11.4746 4.9496 11.0956 4.14422 10.401C3.33884 9.70648 2.78717 8.73946 2.58322 7.66475C2.37927 6.59003 2.53566 5.47413 3.02573 4.50719C3.51581 3.54024 4.30924 2.7821 5.27084 2.36194C6.23244 1.94177 7.30269 1.8856 8.29922 2.20298C9.29576 2.52036 10.1569 3.19166 10.7359 4.10249C11.315 5.01332 11.576 6.10731 11.4747 7.19805C11.3733 8.28879 10.9157 9.30878 10.18 10.0842C9.3369 10.9728 8.19307 11.4726 7 11.4737V11.4737ZM17.5 13.5789C17.9627 13.5792 18.4112 13.4105 18.769 13.1017C19.1268 12.7928 19.3719 12.363 19.4623 11.8853C19.5528 11.4076 19.4831 10.9117 19.2652 10.482C19.0472 10.0524 18.6945 9.71557 18.267 9.52899C17.8396 9.34242 17.3639 9.31763 16.9211 9.45884C16.4782 9.60006 16.0956 9.89854 15.8384 10.3034C15.5812 10.7083 15.4653 11.1946 15.5105 11.6793C15.5557 12.1641 15.7592 12.6173 16.0863 12.9618C16.4611 13.3567 16.9697 13.5787 17.5 13.5789V13.5789ZM17.5 15.6842C16.5746 15.6841 15.6779 15.3461 14.9626 14.728C14.2473 14.11 13.7578 13.2499 13.5774 12.2945C13.397 11.3391 13.5369 10.3474 13.9732 9.48832C14.4096 8.62929 15.1154 7.9561 15.9704 7.58344C16.8254 7.21079 17.7768 7.16173 18.6623 7.44462C19.5478 7.72752 20.3128 8.32486 20.8268 9.13488C21.3408 9.9449 21.5722 10.9175 21.4813 11.8869C21.3905 12.8563 20.9832 13.7626 20.3288 14.4513C19.9573 14.8423 19.5162 15.1524 19.0309 15.3639C18.5455 15.5755 18.0253 15.6843 17.5 15.6842V15.6842ZM20 22V21.4737C20 20.7757 19.7366 20.1064 19.2678 19.6129C18.7989 19.1194 18.163 18.8421 17.5 18.8421C16.837 18.8421 16.2011 19.1194 15.7322 19.6129C15.2634 20.1064 15 20.7757 15 21.4737V22H13V21.4737C13 20.8516 13.1164 20.2357 13.3425 19.661C13.5687 19.0863 13.9002 18.5641 14.318 18.1242C14.7359 17.6844 15.232 17.3355 15.7779 17.0974C16.3239 16.8594 16.9091 16.7368 17.5 16.7368C18.0909 16.7368 18.6761 16.8594 19.2221 17.0974C19.768 17.3355 20.2641 17.6844 20.682 18.1242C21.0998 18.5641 21.4313 19.0863 21.6575 19.661C21.8836 20.2357 22 20.8516 22 21.4737V22H20ZM10 22V17.7895C10 16.9519 9.68393 16.1487 9.12132 15.5565C8.55871 14.9643 7.79565 14.6316 7 14.6316C6.20435 14.6316 5.44129 14.9643 4.87868 15.5565C4.31607 16.1487 4 16.9519 4 17.7895V22H2V17.7895C2 16.3936 2.52678 15.0549 3.46447 14.0679C4.40215 13.0808 5.67392 12.5263 7 12.5263C8.32608 12.5263 9.59785 13.0808 10.5355 14.0679C11.4732 15.0549 12 16.3936 12 17.7895V22H10Z" fill="#595959"/>
</svg>
