<svg width="15" height="14" viewBox="0 0 15 14" fill="none" xmlns="http://www.w3.org/2000/svg">
<path d="M2.17279 5.01306C2.1737 4.73362 2.28682 4.46544 2.48831 4.26506C2.69391 4.06776 2.97187 3.95703 3.26158 3.95703C3.5513 3.95703 3.82926 4.06776 4.03486 4.26506L7.3452 7.45406L10.6555 4.25506C10.8641 4.07683 11.1351 3.98221 11.4134 3.99048C11.6916 3.99875 11.9561 4.10929 12.153 4.29957C12.3498 4.48984 12.4641 4.74553 12.4727 5.01449C12.4813 5.28346 12.3834 5.54545 12.199 5.74706L8.11693 9.69506C8.01577 9.79307 7.89543 9.8706 7.76293 9.92314C7.63042 9.97568 7.48842 10.0022 7.3452 10.0011C7.05668 9.999 6.78001 9.8898 6.57245 9.69606L2.48831 5.76006C2.28905 5.55868 2.17628 5.2917 2.17279 5.01306V5.01306Z" fill="#595959"/>
</svg>
