<svg width="24" height="24" viewBox="0 0 24 24" fill="none" xmlns="http://www.w3.org/2000/svg">
<path d="M17.4 7H20.1C20.3387 7 20.5676 7.10536 20.7364 7.29289C20.9052 7.48043 21 7.73478 21 8V20C21 20.2652 20.9052 20.5196 20.7364 20.7071C20.5676 20.8946 20.3387 21 20.1 21H3.9C3.66131 21 3.43239 20.8946 3.2636 20.7071C3.09482 20.5196 3 20.2652 3 20V4C3 3.73478 3.09482 3.48043 3.2636 3.29289C3.43239 3.10536 3.66131 3 3.9 3H17.4V7ZM4.8 9V19H19.2V9H4.8ZM4.8 5V7H15.6V5H4.8ZM14.7 13H17.4V15H14.7V13Z" fill="#595959"/>
</svg>
