<svg width="24" height="24" viewBox="0 0 24 24" fill="none" xmlns="http://www.w3.org/2000/svg">
<path fill-rule="evenodd" clip-rule="evenodd" d="M19.4961 8.59752C19.368 4.93407 16.0609 2 12 2C7.85787 2 4.5 5.0526 4.5 8.81818C4.5 12.2755 7.33064 15.1318 11 15.5763V16.7006C10.1476 16.9745 9.472 17.5887 9.17071 18.3636H3L2.88338 18.3698C2.38604 18.4223 2 18.8065 2 19.2727C2 19.7748 2.44772 20.1818 3 20.1818H9.17071C9.58255 21.2411 10.6938 22 12 22C13.3062 22 14.4174 21.2411 14.8293 20.1818H21L21.1166 20.1757C21.614 20.1232 22 19.7389 22 19.2727C22 18.7707 21.5523 18.3636 21 18.3636H14.8293C14.528 17.5887 13.8524 16.9745 13 16.7006V15.5763C16.6694 15.1318 19.5 12.2755 19.5 8.81818C19.5 8.80834 19.4998 8.79853 19.4995 8.78877L19.4961 8.59752ZM17.4093 7.90909C17.1167 6.46082 16.1376 5.23089 14.7901 4.50837C15.1644 5.46446 15.3984 6.63398 15.4736 7.90909H17.4093ZM13.4672 7.90909C13.4072 7.08149 13.2701 6.32944 13.0956 5.70237L12.9903 5.3525L12.8783 5.03291C12.5913 4.27355 12.258 3.81818 12 3.81818C11.742 3.81818 11.4087 4.27355 11.1217 5.03291L11.0097 5.3525L10.9044 5.70237C10.7299 6.32944 10.5928 7.08149 10.5328 7.90909H13.4672ZM8.52645 7.90909C8.60162 6.63398 8.8356 5.46446 9.20994 4.50837C7.8624 5.23089 6.88332 6.46082 6.59069 7.90909H8.52645ZM6.59084 9.728H8.52649C8.60171 11.0028 8.83568 12.1721 9.20994 13.128C7.86262 12.4056 6.88365 11.176 6.59084 9.728ZM17.4092 9.728C17.1164 11.176 16.1374 12.4056 14.7901 13.128C15.1643 12.1721 15.3983 11.0028 15.4735 9.728H17.4092ZM13.0956 11.934C13.2701 11.3071 13.4072 10.5553 13.4671 9.728H10.5329C10.5928 10.5553 10.7299 11.3071 10.9044 11.934L11.0097 12.2839L11.1217 12.6035C11.4087 13.3628 11.742 13.8182 12 13.8182C12.258 13.8182 12.5913 13.3628 12.8783 12.6035L12.9903 12.2839L13.0956 11.934ZM12 18.3636C12.5523 18.3636 13 18.7707 13 19.2727C13 19.7748 12.5523 20.1818 12 20.1818C11.4477 20.1818 11 19.7748 11 19.2727C11 18.7707 11.4477 18.3636 12 18.3636Z" fill="#0052CC"/>
</svg>
