<svg width="15" height="14" viewBox="0 0 15 14" fill="none" xmlns="http://www.w3.org/2000/svg">
<path d="M2.17242 5.013C2.17333 4.73356 2.28645 4.46538 2.48794 4.265C2.69354 4.06769 2.97151 3.95697 3.26122 3.95697C3.55093 3.95697 3.82889 4.06769 4.03449 4.265L7.34484 7.454L10.6552 4.255C10.8637 4.07677 11.1348 3.98215 11.413 3.99042C11.6912 3.99869 11.9558 4.10923 12.1526 4.29951C12.3494 4.48978 12.4638 4.74547 12.4723 5.01443C12.4809 5.2834 12.383 5.54539 12.1986 5.747L8.11656 9.695C8.01541 9.79301 7.89506 9.87054 7.76256 9.92308C7.63006 9.97562 7.48805 10.0021 7.34484 10.001C7.05631 9.99894 6.77965 9.88974 6.57208 9.696L2.48794 5.76C2.28868 5.55862 2.17592 5.29164 2.17242 5.013V5.013Z" fill="#595959"/>
</svg>
