<svg width="16" height="16" viewBox="0 0 16 16" fill="none" xmlns="http://www.w3.org/2000/svg">
<path d="M2.28571 5.72923C2.28671 5.40987 2.41168 5.10338 2.63428 4.87437C2.86142 4.64888 3.1685 4.52234 3.48856 4.52234C3.80863 4.52234 4.11571 4.64888 4.34285 4.87437L7.99999 8.51894L11.6571 4.86294C11.8875 4.65926 12.187 4.55111 12.4944 4.56056C12.8017 4.57002 13.094 4.69635 13.3114 4.91381C13.5289 5.13127 13.6552 5.42348 13.6647 5.73087C13.6741 6.03826 13.566 6.33768 13.3623 6.56809L8.85256 11.0801C8.74081 11.1921 8.60786 11.2807 8.46148 11.3408C8.31509 11.4008 8.15821 11.4311 7.99999 11.4298C7.68124 11.4274 7.37559 11.3026 7.14628 11.0812L2.63428 6.58294C2.41414 6.3528 2.28957 6.04768 2.28571 5.72923V5.72923Z" fill="#595959"/>
</svg>
