<svg width="36" height="36" viewBox="0 0 36 36" fill="none" xmlns="http://www.w3.org/2000/svg">
<path fill-rule="evenodd" clip-rule="evenodd" d="M29.2443 12.8963C29.0521 7.4011 24.0914 3 18 3C11.7868 3 6.75003 7.57891 6.75003 13.2273C6.75003 18.4133 10.996 22.6978 16.5 23.3644V25.051C15.2214 25.4618 14.208 26.3831 13.7561 27.5455H4.50003L4.3251 27.5546C3.57909 27.6334 3.00003 28.2098 3.00003 28.9091C3.00003 29.6622 3.6716 30.2727 4.50003 30.2727H13.7561C14.3739 31.8616 16.0407 33 18 33C19.9593 33 21.6262 31.8616 22.244 30.2727H31.5L31.675 30.2636C32.421 30.1848 33 29.6084 33 28.9091C33 28.156 32.3285 27.5455 31.5 27.5455H22.244C21.792 26.3831 20.7786 25.4618 19.5 25.051V23.3644C25.0041 22.6978 29.25 18.4133 29.25 13.2273C29.25 13.2125 29.2498 13.1978 29.2493 13.1831L29.2443 12.8963ZM26.114 11.8636C25.6751 9.69123 24.2064 7.84633 22.1851 6.76255C22.7466 8.19669 23.0976 9.95097 23.2104 11.8636H26.114ZM20.2008 11.8636C20.1109 10.6222 19.9052 9.49416 19.6434 8.55355L19.4854 8.02875L19.3174 7.54936C18.887 6.41033 18.387 5.72727 18 5.72727C17.6131 5.72727 17.113 6.41033 16.6826 7.54936L16.5146 8.02875L16.3567 8.55355C16.0948 9.49416 15.8892 10.6222 15.7993 11.8636H20.2008ZM12.7897 11.8636C12.9025 9.95097 13.2534 8.19669 13.8149 6.76255C11.7936 7.84633 10.325 9.69123 9.88606 11.8636H12.7897ZM9.88629 14.592H12.7898C12.9026 16.5042 13.2535 18.2581 13.8149 19.692C11.794 18.6084 10.3255 16.7639 9.88629 14.592ZM26.1138 14.592C25.6746 16.7639 24.2061 18.6084 22.1851 19.692C22.7465 18.2581 23.0975 16.5042 23.2103 14.592H26.1138ZM19.6434 17.901C19.9051 16.9607 20.1108 15.833 20.2007 14.592H15.7994C15.8893 15.833 16.0949 16.9607 16.3567 17.901L16.5146 18.4258L16.6826 18.9052C17.113 20.0442 17.6131 20.7273 18 20.7273C18.387 20.7273 18.887 20.0442 19.3174 18.9052L19.4854 18.4258L19.6434 17.901ZM18 27.5455C18.8284 27.5455 19.5 28.156 19.5 28.9091C19.5 29.6622 18.8284 30.2727 18 30.2727C17.1716 30.2727 16.5 29.6622 16.5 28.9091C16.5 28.156 17.1716 27.5455 18 27.5455Z" fill="#262626"/>
</svg>
