<svg width="181" height="32" viewBox="0 0 181 32" fill="none" xmlns="http://www.w3.org/2000/svg">
<path d="M32.2119 2.85078e-05C31.5162 -0.00258278 30.8311 0.174239 30.2195 0.514213C29.608 0.854187 29.0898 1.34639 28.7125 1.94549C28.3353 2.5446 28.1111 3.23136 28.0608 3.94253C28.0104 4.65371 28.1354 5.36644 28.4243 6.01512L20.7787 12.7509C19.885 12.0692 18.8027 11.6967 17.6886 11.6874H17.6183L16.9664 8.89215C17.6732 8.41786 18.1932 7.70219 18.434 6.8722C18.6748 6.04221 18.6209 5.1516 18.2818 4.35849C17.9428 3.56539 17.3404 2.9211 16.5818 2.54C15.8232 2.15891 14.9574 2.06568 14.1381 2.27685C13.3187 2.48802 12.5989 2.98995 12.1064 3.6935C11.6139 4.39706 11.3806 5.25674 11.4479 6.1199C11.5151 6.98307 11.8787 7.79388 12.4739 8.40838C13.0691 9.02289 13.8575 9.40133 14.6992 9.47652L15.3529 12.2717C14.5466 12.6852 13.8595 13.3071 13.3595 14.0761C12.8596 14.8451 12.5641 15.7345 12.5022 16.6565L7.94112 17.3752C7.51906 16.4428 6.78282 15.6978 5.86772 15.2771C4.95263 14.8565 3.92016 14.7886 2.96009 15.0857C2.00002 15.3829 1.17685 16.0253 0.641885 16.8948C0.106915 17.7642 -0.103912 18.8024 0.0481534 19.8184C0.200219 20.8345 0.704959 21.7601 1.4696 22.4253C2.23425 23.0904 3.20742 23.4503 4.21026 23.4389C5.2131 23.4275 6.17821 23.0454 6.92822 22.363C7.67823 21.6806 8.16275 20.7436 8.29271 19.7244L12.8538 19.0056C13.241 19.9956 13.9083 20.8442 14.7699 21.4423C15.6315 22.0404 16.648 22.3607 17.6886 22.3618C18.6643 22.3565 19.6195 22.0739 20.448 21.5457L24.439 25.6674C23.9972 26.4865 23.8304 27.4318 23.9642 28.3577C24.0981 29.2836 24.5252 30.1387 25.1797 30.7913C25.8343 31.4439 26.68 31.8579 27.5867 31.9695C28.4933 32.0812 29.4107 31.8842 30.1974 31.4089C30.9841 30.9337 31.5966 30.2066 31.9405 29.3395C32.2844 28.4724 32.3407 27.5136 32.1007 26.6105C31.8607 25.7074 31.3377 24.9103 30.6123 24.3418C29.8868 23.7733 28.9992 23.465 28.086 23.4643C27.3904 23.4624 26.7059 23.6435 26.0981 23.9903L22.1071 19.8685C22.6431 19.019 22.9276 18.0285 22.9262 17.0168C22.9328 16.1538 22.7234 15.3034 22.3181 14.5469L29.9636 7.81302C30.591 8.23354 31.3176 8.47233 32.0666 8.50411C32.8155 8.53588 33.5589 8.35946 34.2181 7.99353C34.8772 7.6276 35.4275 7.08577 35.8107 6.42544C36.1939 5.76511 36.3957 5.01085 36.3948 4.24254C36.3784 3.11485 35.931 2.03875 35.1489 1.24546C34.3668 0.452176 33.3122 0.00500398 32.2119 2.85078e-05V2.85078e-05Z" fill="white"/>
<path d="M41.8594 28.4917V7.23242H54.0717V11.0659H46.2931V15.4369H54.0717V19.2996H46.2931V28.4917H41.8594Z" fill="white"/>
<path d="M55.7578 28.4917V7.23242H60.8586C63.5776 7.23242 65.587 7.76485 66.8869 8.82969C68.1868 9.89454 68.8361 11.5399 68.8349 13.7657C68.8349 15.8291 68.1811 17.4459 66.8736 18.6159C65.5661 19.7859 63.7549 20.3703 61.4402 20.369H60.2201V28.4878L55.7578 28.4917ZM60.2201 16.8297H60.8586C62.0673 16.8297 62.946 16.57 63.4946 16.0505C64.0432 15.5311 64.3168 14.7084 64.3156 13.5825C64.3156 12.5359 64.0419 11.7736 63.4946 11.2957C62.9472 10.8178 62.0686 10.5783 60.8586 10.577H60.2201V16.8297Z" fill="white"/>
<path d="M80.0994 11.1029V28.4995H75.6524V11.1029H70.5781V7.23242H85.1717V11.1029H80.0994Z" fill="white"/>
<path d="M107.056 12.9554C106.295 12.2351 105.415 11.661 104.456 11.2607C103.536 10.8924 102.557 10.7067 101.569 10.7134C99.4647 10.7134 97.7878 11.3581 96.5386 12.6476C95.2894 13.9371 94.6629 15.6701 94.6591 17.8465C94.6591 19.9775 95.2387 21.6657 96.398 22.9111C97.5573 24.1564 99.141 24.781 101.149 24.7849C103.341 24.817 105.459 23.9746 107.056 22.4358V26.8555C106.165 27.3977 105.206 27.8126 104.205 28.0886C103.191 28.3596 102.146 28.4945 101.098 28.4898C97.9506 28.4898 95.3679 27.4873 93.3496 25.4823C91.3314 23.4772 90.3216 20.932 90.3203 17.8465C90.3203 14.7715 91.3339 12.2327 93.361 10.2303C95.3882 8.22785 97.9937 7.22858 101.178 7.23248C102.221 7.22947 103.261 7.34511 104.279 7.57726C105.24 7.78474 106.172 8.11181 107.056 8.5512V12.9554Z" fill="white"/>
<path d="M108.738 28.4917V7.23242H113.174V24.629H120.257V28.4917H108.738Z" fill="white"/>
<path d="M141.053 17.8621C141.06 19.2713 140.795 20.6682 140.274 21.9721C139.762 23.2525 139 24.4114 138.033 25.377C137.048 26.3655 135.887 27.1505 134.612 27.6892C132.244 28.6961 129.594 28.7579 127.183 27.8625C126.047 27.4446 124.988 26.8335 124.05 26.0549C122.854 25.0764 121.892 23.8313 121.237 22.4143C120.582 20.9912 120.247 19.4355 120.258 17.8621C120.248 16.4552 120.51 15.0602 121.03 13.7578C121.548 12.4739 122.318 11.3124 123.291 10.3451C125.262 8.36051 127.911 7.24237 130.675 7.22852C132.033 7.22824 133.378 7.50571 134.631 8.04468C135.899 8.57796 137.053 9.35785 138.031 10.3412C138.999 11.3131 139.763 12.4761 140.279 13.7598C140.797 15.0619 141.06 16.4559 141.053 17.8621V17.8621ZM130.676 24.629C132.44 24.629 133.897 23.9856 135.047 22.6987C136.198 21.4118 136.772 19.7996 136.771 17.8621C136.771 15.9414 136.19 14.3266 135.028 13.0177C134.472 12.3989 133.796 11.905 133.043 11.5673C132.291 11.2295 131.479 11.0551 130.657 11.0551C129.836 11.0551 129.024 11.2295 128.271 11.5673C127.519 11.905 126.843 12.3989 126.286 13.0177C125.125 14.324 124.544 15.9414 124.544 17.8698C124.544 19.8255 125.114 21.4423 126.254 22.7201C127.394 23.9979 128.868 24.6342 130.676 24.629Z" fill="white"/>
<path d="M160.194 7.23242V20.1177C160.194 22.9279 159.472 25.0258 158.027 26.4114C156.583 27.797 154.408 28.4904 151.501 28.4917C148.548 28.4917 146.349 27.7983 144.905 26.4114C143.46 25.0245 142.738 22.9266 142.738 20.1177V7.23242H147.031V19.4243C147.031 21.1306 147.399 22.4156 148.136 23.2792C148.872 24.1427 149.971 24.5739 151.433 24.5726C152.906 24.5726 154.02 24.1388 154.774 23.2714C155.528 22.4039 155.905 21.1215 155.905 19.4243V7.23242H160.194Z" fill="white"/>
<path d="M161.879 28.4917V7.23242H167.533C169.76 7.23242 171.517 7.39215 172.803 7.7116C174.025 8.00192 175.177 8.54549 176.187 9.30887C177.425 10.2464 178.406 11.4939 179.038 12.932C179.707 14.4988 180.038 16.195 180.009 17.9049C180.009 19.7918 179.679 21.4644 179.017 22.9227C178.369 24.3627 177.368 25.6061 176.111 26.5321C175.162 27.2299 174.093 27.7392 172.96 28.034C171.804 28.3378 170.11 28.4904 167.881 28.4917H161.879ZM166.305 24.6583H168.776C171.098 24.6583 172.791 24.1161 173.854 23.0318C174.917 21.9474 175.448 20.2288 175.448 17.8757C175.448 15.5382 174.917 13.8221 173.854 12.7274C172.791 11.6327 171.098 11.0912 168.776 11.1029H166.305V24.6583Z" fill="white"/>
</svg>
