<svg width="64" height="64" viewBox="0 0 64 64" fill="none" xmlns="http://www.w3.org/2000/svg">
<path d="M21.7217 20C20.7708 20 20 20.7708 20 21.7217V21.7217C20 22.6726 20.7708 23.4434 21.7217 23.4434H42.2783C43.2292 23.4434 44 22.6726 44 21.7217V21.7217C44 20.7708 43.2292 20 42.2783 20H21.7217ZM21.7231 30.225C20.7715 30.225 20 30.9965 20 31.9482V31.9482C20 32.8998 20.7715 33.6713 21.7231 33.6713H42.2769C43.2285 33.6713 44 32.8998 44 31.9482V31.9482C44 30.9965 43.2285 30.225 42.2769 30.225H21.7231ZM21.7217 40.5567C20.7709 40.5567 20 41.3275 20 42.2784V42.2784C20 43.2292 20.7708 44 21.7216 44H42.279C43.2295 44 44 43.2295 44 42.279V42.279C44 41.3285 43.2295 40.558 42.2791 40.558L21.7217 40.5567Z" fill="#595959"/>
</svg>
