<svg width="22" height="22" viewBox="0 0 22 22" fill="none" xmlns="http://www.w3.org/2000/svg">
<path d="M21.2586 13.6009L19.2903 12.065C19.3496 11.5271 19.3496 10.9842 19.2903 10.4462L21.2586 8.90445C21.4381 8.76182 21.5606 8.55969 21.6041 8.33458C21.6476 8.10947 21.6092 7.87622 21.4957 7.67698L19.4445 4.1191C19.3288 3.91958 19.1465 3.76732 18.9295 3.68921C18.7126 3.61109 18.475 3.61213 18.2588 3.69215L15.9407 4.62906C15.5035 4.31408 15.037 4.04203 14.5475 3.81668L14.1918 1.35581C14.1615 1.12633 14.0483 0.915877 13.8735 0.764066C13.6988 0.612256 13.4747 0.529564 13.2433 0.531565H9.14073C8.90729 0.526632 8.68022 0.607995 8.50301 0.760076C8.3258 0.912158 8.21091 1.12427 8.18032 1.35581L7.81869 3.82854C7.33107 4.0538 6.86645 4.32587 6.4314 4.64092L4.1015 3.70401C3.88657 3.61715 3.64728 3.61202 3.42883 3.68959C3.21037 3.76716 3.02787 3.92206 2.9158 4.12503L0.864544 7.68291C0.747194 7.88265 0.705957 8.11808 0.748445 8.34582C0.790933 8.57356 0.914274 8.77827 1.09575 8.92224L3.06401 10.4581C3.00473 10.996 3.00473 11.5389 3.06401 12.0769L1.09575 13.6186C0.917244 13.7621 0.795869 13.9646 0.753475 14.1897C0.71108 14.4147 0.750466 14.6475 0.864544 14.8461L2.90987 18.404C3.02463 18.6044 3.20697 18.7574 3.42421 18.8356C3.64146 18.9138 3.87943 18.9122 4.09557 18.8309L6.41362 17.894C6.85163 18.2077 7.31807 18.4797 7.80682 18.7064L8.16847 21.1673C8.19748 21.3963 8.30947 21.6066 8.4832 21.7586C8.65693 21.9105 8.88034 21.9934 9.1111 21.9915H13.2136C13.4422 21.9925 13.6635 21.9108 13.8367 21.7615C14.0099 21.6123 14.1234 21.4054 14.1562 21.1791L14.5179 18.7064C15.0055 18.4812 15.4701 18.2091 15.9052 17.894L18.2351 18.8309C18.4501 18.9165 18.689 18.921 18.9071 18.8435C19.1252 18.7661 19.3078 18.612 19.4208 18.4099L21.472 14.852C21.5934 14.6528 21.6386 14.4165 21.5994 14.1865C21.5602 13.9565 21.4391 13.7485 21.2586 13.6009V13.6009ZM11.1801 15.7178C10.297 15.719 9.43328 15.4581 8.69837 14.9682C7.96347 14.4782 7.39036 13.7813 7.05157 12.9655C6.71278 12.1497 6.62353 11.2517 6.79511 10.3852C6.96669 9.51864 7.39139 8.72248 8.01548 8.09742C8.63956 7.47237 9.435 7.04651 10.3011 6.87374C11.1672 6.70097 12.0651 6.78905 12.8812 7.12683C13.6973 7.46462 14.3948 8.03692 14.8856 8.77134C15.3764 9.50576 15.6384 10.3693 15.6384 11.2527C15.6384 12.4338 15.1705 13.5668 14.3371 14.4037C13.5038 15.2406 12.3729 15.7131 11.192 15.7178H11.1801Z" fill="white"/>
</svg>
